HIERARCHY
ROOT Hips
{
	OFFSET -3.958830 18.904000 13.208200
	CHANNELS 6 Xposition Yposition Zposition Zrotation Yrotation Xrotation 
	JOINT LHipJoint
	{
		OFFSET 0.000000 0.000000 0.000000
		CHANNELS 3 Zrotation Yrotation Xrotation
		JOINT LeftUpLeg
		{
			OFFSET 1.800000 -1.400000 0.085000
			CHANNELS 3 Zrotation Yrotation Xrotation
			JOINT LeftLeg
			{
				OFFSET 2.215000 -6.000000 0.000000
				CHANNELS 3 Zrotation Yrotation Xrotation
				JOINT LeftFoot
				{
					OFFSET 2.500000 -6.900000 0.000000
					CHANNELS 3 Zrotation Yrotation Xrotation
					JOINT LeftToeBase
					{
						OFFSET 0.200000 -0.500000 1.950000
						CHANNELS 3 Zrotation Yrotation Xrotation
						End Site
						{
							OFFSET 0.000000 0.000000 0.000000
						}
					}
				}
			}
		}
	}
	JOINT RHipJoint
	{
		OFFSET 0.000000 0.000000 0.000000
		CHANNELS 3 Zrotation Yrotation Xrotation
		JOINT RightUpLeg
		{
			OFFSET -1.800000 -1.400000 0.085000
			CHANNELS 3 Zrotation Yrotation Xrotation
			JOINT RightLeg
			{
				OFFSET -2.215000 -6.000000 0.000000
				CHANNELS 3 Zrotation Yrotation Xrotation
				JOINT RightFoot
				{
					OFFSET -2.500000 -6.900000 0.000000
					CHANNELS 3 Zrotation Yrotation Xrotation
					JOINT RightToeBase
					{
						OFFSET -0.200000 -0.500000 1.950000
						CHANNELS 3 Zrotation Yrotation Xrotation
						End Site
						{
							OFFSET 0.000000 0.000000 0.000000
						}
					}
				}
			}
		}
	}
	JOINT LowerBack
	{
		OFFSET 0.000000 0.000000 0.000000
		CHANNELS 3 Zrotation Yrotation Xrotation
		JOINT Spine
		{
			OFFSET -0.087000 1.940000 -0.288900
			CHANNELS 3 Zrotation Yrotation Xrotation
			JOINT Spine1
			{
				OFFSET 0.000000 1.950000 0.060000
				CHANNELS 3 Zrotation Yrotation Xrotation
				JOINT Neck
				{
					OFFSET 0.000000 0.000000 0.000000
					CHANNELS 3 Zrotation Yrotation Xrotation
					JOINT Neck1
					{
						OFFSET 0.000000 1.600000 0.340000
						CHANNELS 3 Zrotation Yrotation Xrotation
						JOINT Head
						{
							OFFSET 0.000000 1.667000 -0.240000
							CHANNELS 3 Zrotation Yrotation Xrotation
							End Site
							{
								OFFSET 0.000000 0.000000 0.000000
							}
						}
					}
				}
				JOINT LeftShoulder
				{
					OFFSET 0.000000 0.000000 0.000000
					CHANNELS 3 Zrotation Yrotation Xrotation
					JOINT LeftArm
					{
						OFFSET 2.700000 1.550000 -0.730000
						CHANNELS 3 Zrotation Yrotation Xrotation
						JOINT LeftForeArm
						{
							OFFSET 5.450000 0.000000 0.000000
							CHANNELS 3 Zrotation Yrotation Xrotation
							JOINT LeftHand
							{
								OFFSET 3.450000 0.000000 0.000000
								CHANNELS 3 Zrotation Yrotation Xrotation
								JOINT LeftHandIndex1
								{
									OFFSET 0.750000 0.000000 0.000000
									CHANNELS 3 Zrotation Yrotation Xrotation
									End Site
									{
										OFFSET 0.000000 0.000000 0.000000
									}
								}
							}
						}
					}
				}
				JOINT RightShoulder
				{
					OFFSET 0.000000 0.000000 0.000000
					CHANNELS 3 Zrotation Yrotation Xrotation
					JOINT RightArm
					{
						OFFSET -2.700000 1.550000 -0.730000
						CHANNELS 3 Zrotation Yrotation Xrotation
						JOINT RightForeArm
						{
							OFFSET -5.450000 0.000000 0.000000
							CHANNELS 3 Zrotation Yrotation Xrotation
							JOINT RightHand
							{
								OFFSET -3.450000 0.000000 0.000000
								CHANNELS 3 Zrotation Yrotation Xrotation
								JOINT RightHandIndex1
								{
									OFFSET -0.750000 0.000000 0.000000
									CHANNELS 3 Zrotation Yrotation Xrotation
									End Site
									{
										OFFSET 0.000000 0.000000 0.000000
									}
								}
							}
						}
					}
				}
			}
		}
	}
}
MOTION
Frames: 11
Frame Time: 0.016667
-0.214750 16.185370 0.315890 -0.939303 -9.294662 8.360166 -14.813366 12.510888 2.542523 7.497087 -2.077101 -14.780783 -4.824907 4.343005 8.687759 -0.441703 3.630072 3.662291 0.030360 -0.181310 -0.143400 18.589037 -11.713319 2.779644 -8.163664 2.394432 -25.483781 5.712825 -5.037144 18.245651 0.402301 -3.702727 3.253592 0.158660 0.821260 0.230070 -4.423920 1.540535 -6.426448 9.457186 -2.074595 1.758945 -2.231057 -2.820781 -2.950706 2.482087 2.029029 -2.646949 5.702795 -6.932357 15.889877 -6.990420 -4.789220 7.736460 -7.260337 19.557940 -3.315669 -48.356478 4.570143 -6.100977 59.471465 -55.534586 -23.105025 -4.327032 2.960928 -0.350040 0.746560 -0.646470 0.295390 1.707543 -18.805625 1.581195 53.082855 5.969431 0.159955 -110.024408 48.202995 -67.907056 1.860222 -1.756664 -0.272660 0.125780 0.045440 0.061170 
-0.214070 16.185210 0.315920 -0.951088 -9.260984 8.334907 -14.811674 12.509994 2.543886 7.517739 -2.075410 -14.770914 -4.841772 4.349514 8.702773 -0.440402 3.630220 3.660180 0.032610 -0.178440 -0.142280 18.589321 -11.721443 2.779197 -8.126115 2.391657 -25.452741 5.649276 -5.020993 18.261486 0.402130 -3.700643 3.254310 0.159700 0.818300 0.230580 -4.426143 1.555609 -6.430102 9.483166 -2.057359 1.785489 -2.287471 -2.795924 -2.938079 2.552690 2.037160 -2.679514 5.719113 -6.953096 15.917176 -7.002160 -4.814160 7.736160 -7.252471 19.520339 -3.343793 -48.348262 4.461314 -6.068358 59.467485 -55.451574 -23.064995 -4.326648 2.964980 -0.350940 0.745420 -0.645460 0.295200 1.548457 -18.751830 1.656158 52.756319 6.047765 0.216136 -110.097879 47.922371 -67.651830 1.863806 -1.776327 -0.270300 0.123390 0.044260 0.061200 
-0.213110 16.184500 0.316070 -0.970002 -9.195949 8.297141 -14.809343 12.507526 2.544836 7.553129 -2.075907 -14.764308 -4.864423 4.359431 8.739771 -0.440037 3.635393 3.657086 0.037470 -0.173600 -0.140110 18.590054 -11.735088 2.777145 -8.049738 2.389956 -25.413108 5.510044 -4.987420 18.307272 0.401983 -3.699742 3.254129 0.163100 0.817880 0.234640 -4.429908 1.582161 -6.432635 9.532228 -2.035185 1.803518 -2.440708 -2.766702 -2.853118 2.708762 2.054283 -2.743846 5.764520 -6.986699 15.897973 -7.040370 -4.848920 7.752640 -7.203385 19.453079 -3.400162 -48.306648 4.272604 -6.032633 59.352161 -55.359592 -22.989594 -4.330079 2.974253 -0.354280 0.747480 -0.645500 0.296800 1.176506 -18.667598 1.824356 52.193628 6.151422 0.317912 -110.209076 47.499291 -67.263557 1.867938 -1.810562 -0.266990 0.120230 0.042480 0.061900 
-0.211240 16.183530 0.316610 -1.002378 -9.114769 8.254688 -14.807732 12.504864 2.548369 7.621085 -2.075659 -14.747012 -4.933581 4.378366 8.751536 -0.444108 3.649243 3.652582 0.040400 -0.170420 -0.140410 18.589830 -11.748626 2.773539 -7.953544 2.387392 -25.361946 5.330056 -4.942287 18.351068 0.403309 -3.697131 3.256303 0.168100 0.821620 0.236590 -4.431222 1.606912 -6.437907 9.600534 -2.020280 1.839367 -2.648288 -2.735564 -2.787981 2.936567 2.079913 -2.801802 5.824577 -7.005326 15.886415 -7.075490 -4.886850 7.759680 -7.154020 19.425816 -3.498862 -48.201991 4.061481 -5.987640 59.174487 -55.320467 -22.917654 -4.335687 2.978537 -0.355680 0.751600 -0.647850 0.298890 0.661899 -18.625572 2.027842 51.298754 6.261852 0.465998 -110.304275 46.998011 -66.659214 1.870640 -1.847657 -0.268560 0.122130 0.042910 0.061890 
-0.208540 16.182640 0.317400 -1.034117 -8.988899 8.190386 -14.807872 12.507965 2.553617 7.693548 -2.076479 -14.723637 -5.007673 4.401767 8.776356 -0.445320 3.663777 3.647579 0.046340 -0.165730 -0.137310 18.587038 -11.760112 2.768598 -7.869629 2.376636 -25.290553 5.161990 -4.906820 18.426602 0.402963 -3.697252 3.257797 0.172530 0.823130 0.238760 -4.426481 1.615884 -6.447416 9.665383 -2.035908 1.907868 -2.888449 -2.720403 -2.730758 3.200827 2.099580 -2.873577 5.864001 -7.011423 15.907469 -7.078480 -4.940100 7.762750 -7.102918 19.390840 -3.591299 -48.046220 3.889080 -5.966446 59.033865 -55.368478 -22.929648 -4.336769 2.982769 -0.356790 0.753640 -0.649040 0.301490 0.074215 -18.572267 2.251887 50.044215 6.329559 0.596238 -110.229273 46.573781 -65.834229 1.875691 -1.880797 -0.267960 0.122710 0.041080 0.061660 
-0.205160 16.181840 0.318750 -1.037721 -8.833765 8.106732 -14.810708 12.515679 2.559091 7.748111 -2.073821 -14.692903 -5.088391 4.429501 8.806586 -0.447657 3.681948 3.642568 0.049350 -0.161830 -0.140540 18.582007 -11.766899 2.760343 -7.832534 2.354824 -25.218000 5.012658 -4.884410 18.537438 0.404427 -3.705267 3.256913 0.178580 0.829470 0.238400 -4.415422 1.605752 -6.455645 9.698895 -2.087801 1.971320 -3.161996 -2.736489 -2.633506 3.479101 2.101021 -2.937708 5.866740 -6.979893 15.926666 -7.011360 -5.035760 7.793620 -7.061248 19.347191 -3.679464 -47.822459 3.747228 -5.948767 58.929701 -55.401497 -22.964884 -4.339654 2.985784 -0.360230 0.757540 -0.654210 0.304920 -0.517090 -18.512329 2.475478 48.503435 6.351656 0.726795 -109.964933 46.411720 -65.013152 1.879714 -1.900415 -0.270000 0.126530 0.041840 0.063440 
-0.200810 16.181220 0.320030 -1.022557 -8.693901 8.023651 -14.816350 12.527648 2.564908 7.758635 -2.068992 -14.644519 -5.143257 4.445429 8.802696 -0.448151 3.694597 3.640159 0.053850 -0.154240 -0.144720 18.574906 -11.767051 2.751056 -7.833695 2.330800 -25.174820 4.895371 -4.875218 18.688020 0.405097 -3.718314 3.253335 0.186270 0.836630 0.237520 -4.397747 1.575591 -6.463390 9.699259 -2.156770 2.036360 -3.419066 -2.760173 -2.541493 3.747984 2.076454 -2.981927 5.823294 -6.938879 15.940695 -6.912320 -5.158380 7.814800 -7.026879 19.325646 -3.752610 -47.538924 3.694288 -5.969873 58.812799 -55.553557 -23.069813 -4.339935 2.989884 -0.366300 0.761160 -0.659420 0.309920 -1.072304 -18.461665 2.654882 46.637249 6.310666 0.824449 -109.498147 46.439145 -64.072782 1.884857 -1.911631 -0.270490 0.130970 0.041360 0.067610 
-0.195800 16.180380 0.321320 -0.995531 -8.599430 7.950897 -14.823925 12.542694 2.571725 7.740273 -2.062630 -14.571450 -5.182213 4.450354 8.757068 -0.450343 3.705369 3.638548 0.061010 -0.145560 -0.146140 18.566328 -11.761631 2.742104 -7.851761 2.312379 -25.170054 4.784379 -4.870415 18.864636 0.404991 -3.731139 3.249005 0.194650 0.842920 0.237210 -4.374966 1.530500 -6.472545 9.686228 -2.230871 2.110335 -3.685861 -2.780031 -2.470743 4.018933 2.028984 -3.010855 5.738944 -6.885726 15.956407 -6.782940 -5.298560 7.785010 -6.994402 19.335136 -3.828525 -47.230647 3.682494 -5.985732 58.724341 -55.713721 -23.188789 -4.338933 2.993563 -0.370120 0.763540 -0.663870 0.314920 -1.626895 -18.425609 2.813206 44.605004 6.179695 0.864996 -108.767569 46.689964 -62.994911 1.888761 -1.910945 -0.270950 0.135500 0.040130 0.070890 
-0.190250 16.179590 0.322750 -0.943338 -8.518941 7.890755 -14.834956 12.559687 2.577963 7.678997 -2.055103 -14.491345 -5.202125 4.445733 8.685835 -0.452292 3.713426 3.637717 0.068700 -0.134670 -0.148190 18.555656 -11.749480 2.731532 -7.906099 2.289717 -25.184115 4.702285 -4.871389 19.033134 0.405166 -3.746065 3.241983 0.205300 0.849290 0.237840 -4.344776 1.469350 -6.478317 9.618800 -2.303159 2.160291 -3.934584 -2.800720 -2.395448 4.294739 1.980876 -3.008999 5.654950 -6.863890 15.952027 -6.669660 -5.458540 7.749510 -6.972807 19.376775 -3.913497 -46.885007 3.669125 -5.985447 58.667715 -55.902487 -23.336060 -4.339969 2.998394 -0.377190 0.767160 -0.668720 0.319590 -2.162852 -18.430119 2.928705 42.444919 5.966905 0.865252 -107.802145 47.143992 -61.795657 1.891496 -1.902280 -0.270050 0.139490 0.039170 0.075000 
-0.185160 16.178640 0.323780 -0.905664 -8.401711 7.835601 -14.847025 12.577362 2.583807 7.635440 -2.046227 -14.424208 -5.215636 4.437574 8.597682 -0.457163 3.721395 3.635969 0.075550 -0.123310 -0.154450 18.544345 -11.732770 2.721502 -7.973223 2.265438 -25.190272 4.691951 -4.895831 19.194502 0.405061 -3.767445 3.233585 0.216720 0.857450 0.237980 -4.313049 1.398650 -6.484971 9.572107 -2.390117 2.205156 -4.230129 -2.836870 -2.310867 4.588097 1.935940 -2.990996 5.574035 -6.850425 15.944211 -6.542800 -5.640320 7.693080 -7.009355 19.400687 -4.016661 -46.442801 3.630645 -5.936603 58.724100 -56.016216 -23.488613 -4.342995 3.002920 -0.384200 0.771640 -0.675190 0.324770 -2.669041 -18.438348 3.044709 40.269793 5.637850 0.821930 -106.720028 47.850480 -60.717077 1.890068 -1.881136 -0.269840 0.144800 0.040880 0.079650 
-0.179810 16.177610 0.324390 -0.857247 -8.282858 7.780865 -14.859493 12.594714 2.591352 7.597189 -2.036472 -14.367486 -5.280317 4.444026 8.526860 -0.457741 3.732491 3.631837 0.083360 -0.111010 -0.158780 18.532642 -11.714059 2.711279 -8.063187 2.239343 -25.214429 4.691774 -4.927842 19.369159 0.404099 -3.790376 3.222887 0.227000 0.863040 0.240200 -4.280327 1.324032 -6.493385 9.532029 -2.488933 2.244895 -4.550429 -2.884282 -2.208908 4.882421 1.880995 -2.978963 5.473964 -6.862110 15.945940 -6.450210 -5.824280 7.649470 -7.030414 19.418228 -4.122076 -46.038421 3.552246 -5.855774 58.830901 -55.999664 -23.580794 -4.346793 3.011237 -0.392660 0.775360 -0.679980 0.329080 -3.193415 -18.426094 3.174192 38.165503 5.238036 0.738541 -105.445147 48.807575 -59.682482 1.888238 -1.849002 -0.266260 0.146360 0.041170 0.084910 
